Coordinates
version=1
nRows=17
nColumns=24
inDegrees=yes

Units are S.I. units (second, meters, Newtons, ...)
Angles are in degrees.

endheader
time	pelvis_tilt	pelvis_list	pelvis_rotation	pelvis_tx	pelvis_ty	pelvis_tz	hip_flexion_r	hip_adduction_r	hip_rotation_r	knee_angle_r	ankle_angle_r	subtalar_angle_r	mtp_angle_r	hip_flexion_l	hip_adduction_l	hip_rotation_l	knee_angle_l	ankle_angle_l	subtalar_angle_l	mtp_angle_l	lumbar_extension	lumbar_bending	lumbar_rotation
      1.06233333	     -1.68324310	     -1.40083460	     -4.79695725	     -0.14462012	      0.97121807	      0.34892029	    -11.62324661	      4.76545006	     -3.97758069	     -9.96340538	     16.04864437	      3.75768246	      6.96396352	     25.29112835	     -1.26190828	     -3.85375790	     -1.56492409	      0.05731884	     -3.02465451	     -0.44672998	     -2.23397515	      4.21170419	      7.00592140
      1.06650000	     -1.74348615	     -1.31175689	     -4.81139442	     -0.13876694	      0.97058453	      0.34864773	    -11.68839418	      4.61144528	     -4.00072848	    -10.40077671	     16.05438792	      3.74337287	      6.92276488	     25.26470335	     -1.11457690	     -3.90303055	     -1.55879531	     -0.24513891	     -3.09492735	     -0.40309966	     -2.12876228	      4.08791867	      7.01370482
      1.07066667	     -1.81969198	     -1.22288478	     -4.83982230	     -0.13292439	      0.96997573	      0.34832182	    -11.68120498	      4.43952796	     -4.08266774	    -10.94969406	     16.13162221	      3.85756960	      6.84752792	     25.23618655	     -0.96466623	     -3.84173796	     -1.57609652	     -0.62211720	     -3.41481203	     -0.28478552	     -2.01151715	      4.01273357	      7.07597323
      1.07483333	     -1.90565157	     -1.11625633	     -4.85169413	     -0.12703020	      0.96941624	      0.34799695	    -11.66968996	      4.25750284	     -4.13294798	    -11.47988409	     16.12450237	      3.89548395	      6.78816285	     25.24265562	     -0.79783095	     -3.81481776	     -1.70033096	     -1.03082101	     -3.67993978	     -0.15546341	     -1.86905372	      3.89282791	      7.10069201
      1.07900000	     -1.97834396	     -1.00283961	     -4.85626366	     -0.12110828	      0.96892530	      0.34765774	    -11.65329441	      4.06565991	     -4.19637686	    -12.04732558	     16.08423513	      3.91753497	      6.73833962	     25.23504127	     -0.62043474	     -3.74903958	     -1.87763033	     -1.46368547	     -4.00601522	      0.01458891	     -1.73751128	      3.76114554	      7.12811499
      1.08316667	     -2.07730228	     -0.88197600	     -4.85471012	     -0.11515707	      0.96846440	      0.34731338	    -11.60120107	      3.87283812	     -4.21848075	    -12.62536105	     16.02294653	      3.88730205	      6.71727838	     25.27782965	     -0.43917357	     -3.70410612	     -2.14738495	     -1.93589572	     -4.31898596	      0.15318421	     -1.57000591	      3.62439255	      7.14140514
      1.08733333	     -2.17513594	     -0.75707776	     -4.84719121	     -0.10919435	      0.96805780	      0.34695162	    -11.52321771	      3.67341903	     -4.25155864	    -13.25231678	     15.92410700	      3.84223413	      6.71442814	     25.31913593	     -0.25119463	     -3.61028489	     -2.45666773	     -2.43423456	     -4.70790156	      0.31071733	     -1.40275112	      3.48370781	      7.15921992
      1.09150000	     -2.24058783	     -0.60884792	     -4.81289113	     -0.10316995	      0.96773926	      0.34653309	    -11.46665122	      3.44426157	     -4.33996831	    -13.90218669	     15.75511008	      3.81024875	      6.75551385	     25.32165463	     -0.02272219	     -3.45376934	     -2.79453774	     -2.94376534	     -5.19509563	      0.66758950	     -1.26656514	      3.30963778	      7.17468687
      1.09566667	     -2.35602802	     -0.48026166	     -4.80173721	     -0.09716810	      0.96742468	      0.34616841	    -11.33404033	      3.24688174	     -4.31175912	    -14.59241505	     15.61293806	      3.69445580	      6.79306813	     25.41260536	      0.16176264	     -3.39838484	     -3.23255442	     -3.48385404	     -5.54058543	      0.81408653	     -1.07356197	      3.16830374	      7.16637357
      1.09983333	     -2.45523819	     -0.33311298	     -4.76844835	     -0.09112227	      0.96718164	      0.34575013	    -11.19591404	      3.02600454	     -4.33008272	    -15.32254177	     15.39718035	      3.56825418	      6.85604940	     25.47865294	      0.37981669	     -3.26471200	     -3.68228662	     -4.02840367	     -5.99547811	      0.97562275	     -0.89436953	      3.00160661	      7.16602224
      1.10400000	     -2.49725245	     -0.15931643	     -4.69726005	     -0.08500620	      0.96705809	      0.34526408	    -11.11314314	      2.77265987	     -4.40656954	    -16.06048338	     15.13071977	      3.45332324	      7.12987969	     25.47449164	      0.64991302	     -3.05593012	     -4.13603793	     -4.57785396	     -6.56509154	      1.46841766	     -0.77484910	      2.78858043	      7.15751459
      1.10816667	     -2.62686806	     -0.02332909	     -4.66918937	     -0.07895285	      0.96688901	      0.34484968	    -10.88371585	      2.56738524	     -4.36821750	    -16.89016027	     14.82702274	      3.26901934	      7.22879845	     25.60404369	      0.84405370	     -2.97502747	     -4.69129508	     -5.08944044	     -6.90271876	      1.59863217	     -0.56085027	      2.64902205	      7.13375136
      1.11233333	     -2.71896025	      0.14219719	     -4.60795204	     -0.07283868	      0.96681100	      0.34436353	    -10.68274537	      2.32856526	     -4.36906276	    -17.73831091	     14.48262709	      3.05731671	      7.38768448	     25.67958053	      1.09249382	     -2.79882831	     -5.23471183	     -5.59535839	     -7.38785613	      1.75975476	     -0.38706510	      2.46916129	      7.11541893
      1.11650000	     -2.77735085	      0.31990595	     -4.52801608	     -0.06668858	      0.96682178	      0.34384855	    -10.48988529	      2.07249894	     -4.40691358	    -18.63649226	     14.10746229	      2.84704552	      7.76793068	     25.71624408	      1.36559133	     -2.59181853	     -5.78887393	     -6.05852936	     -7.91599156	      2.05927605	     -0.23783643	      2.24790158	      7.08948749
      1.12066667	     -2.86250313	      0.48193966	     -4.46159039	     -0.06055008	      0.96685805	      0.34335949	    -10.23746141	      1.83663545	     -4.39175568	    -19.57411648	     13.61295734	      2.65138804	      7.95224687	     25.80026416	      1.60425133	     -2.48118410	     -6.38840216	     -6.53483615	     -8.23651371	      2.17037726	     -0.06390559	      2.07090781	      7.04938578
      1.12483333	     -2.92604644	      0.65942364	     -4.37460595	     -0.05438049	      0.96696014	      0.34282503	     -9.97779962	      1.58024711	     -4.40904478	    -20.56656968	     13.11366078	      2.41910580	      8.19386588	     25.85693707	      1.87466411	     -2.31362508	     -6.99486131	     -6.93957878	     -8.65932712	      2.28346464	      0.09489954	      1.85548971	      7.01279434
      1.12900000	     -2.99441592	      0.85526444	     -4.27865241	     -0.04820289	      0.96709384	      0.34223998	     -9.68208625	      1.30238674	     -4.41835230	    -21.60255090	     12.57383713	      2.18968410	      8.61565293	     25.92004178	      2.17306225	     -2.11860964	     -7.61465941	     -7.30438272	     -9.13672686	      2.43554017	      0.24140796	      1.64760751	      6.97038880
